<svg xmlns="http://www.w3.org/2000/svg" width="61.51" height="49.54" viewBox="0 0 61.51 49.54">
  <g id="auto" transform="translate(-294.745 -734)">
    <g id="Setting" transform="translate(291.745 731)">
      <path id="Path_3" data-name="Path 3" d="M44.41,18.054H41.774A5.731,5.731,0,0,0,41,16.348l1.86-2.015a3,3,0,0,0,0-4.341L38.518,5.651a3,3,0,0,0-4.341,0l-1.86,1.86a9.484,9.484,0,0,0-1.86-.775V4.1a3.11,3.11,0,0,0-3.1-3.1h-6.2a3.11,3.11,0,0,0-3.1,3.1V6.736a5.731,5.731,0,0,0-1.705.775l-2.015-1.86a3,3,0,0,0-4.341,0L5.651,9.992a3,3,0,0,0,0,4.341l1.86,1.86a9.484,9.484,0,0,0-.775,1.86H4.1a3.11,3.11,0,0,0-3.1,3.1v6.2a3.11,3.11,0,0,0,3.1,3.1H6.736a5.731,5.731,0,0,0,.775,1.705l-1.86,2.015a3,3,0,0,0,0,4.341l4.341,4.341a3,3,0,0,0,4.341,0L16.193,41c.62.31,1.085.465,1.705.775V44.41a3.11,3.11,0,0,0,3.1,3.1h6.2a3.11,3.11,0,0,0,3.1-3.1V41.774A5.731,5.731,0,0,0,32.007,41l1.86,1.86a3,3,0,0,0,4.341,0l4.341-4.341a3,3,0,0,0,0-4.341l-1.86-1.86c.31-.62.465-1.085.775-1.705H44.41a3.11,3.11,0,0,0,3.1-3.1v-6.2A3.147,3.147,0,0,0,44.41,18.054Zm-20.155,15.5a9.3,9.3,0,1,1,9.3-9.3A9.329,9.329,0,0,1,24.255,33.557Z" transform="translate(2 2)" fill="#8dafff"/>
    </g>
    <g id="Setting-2" data-name="Setting" transform="translate(326.325 753.609)">
      <path id="Path_5" data-name="Path 5" d="M28,11.608H26.363a3.565,3.565,0,0,0-.482-1.061l1.157-1.254a1.864,1.864,0,0,0,0-2.7l-2.7-2.7a1.864,1.864,0,0,0-2.7,0L20.48,5.05a5.9,5.9,0,0,0-1.157-.482V2.929A1.934,1.934,0,0,0,17.394,1H13.537a1.934,1.934,0,0,0-1.929,1.929V4.568a3.565,3.565,0,0,0-1.061.482L9.293,3.893a1.864,1.864,0,0,0-2.7,0l-2.7,2.7a1.864,1.864,0,0,0,0,2.7L5.05,10.451a5.9,5.9,0,0,0-.482,1.157H2.929A1.934,1.934,0,0,0,1,13.537v3.857a1.934,1.934,0,0,0,1.929,1.929H4.568a3.565,3.565,0,0,0,.482,1.061L3.893,21.637a1.864,1.864,0,0,0,0,2.7l2.7,2.7a1.864,1.864,0,0,0,2.7,0l1.157-1.157c.386.193.675.289,1.061.482V28a1.934,1.934,0,0,0,1.929,1.929H17.3A1.934,1.934,0,0,0,19.226,28V26.363a3.565,3.565,0,0,0,1.061-.482l1.157,1.157a1.864,1.864,0,0,0,2.7,0l2.7-2.7a1.864,1.864,0,0,0,0-2.7L25.688,20.48c.193-.386.289-.675.482-1.061H28a1.934,1.934,0,0,0,1.929-1.929V13.633A1.957,1.957,0,0,0,28,11.608ZM15.465,21.251a5.786,5.786,0,1,1,5.786-5.786A5.8,5.8,0,0,1,15.465,21.251Z" fill="#fff"/>
    </g>
  </g>
</svg>
