<svg xmlns="http://www.w3.org/2000/svg" width="42" height="30" viewBox="0 0 42 30">
  <g id="Buy" transform="translate(11 -1)">
    <path id="Path_17" data-name="Path 17" d="M20.8,6.867H18.6V6.133A5.1,5.1,0,0,0,13.467,1H10.533A5.1,5.1,0,0,0,5.4,6.133v.733H3.2A2.161,2.161,0,0,0,1,9.067V20.8A2.206,2.206,0,0,0,3.2,23H20.8A2.206,2.206,0,0,0,23,20.8V9.067A2.161,2.161,0,0,0,20.8,6.867Zm-3.667,0H6.867V6.133a3.631,3.631,0,0,1,3.667-3.667h2.933a3.631,3.631,0,0,1,3.667,3.667Z" transform="translate(-12 5)" fill="#fff"/>
    <path id="Path_15" data-name="Path 15" d="M28,9H25V8a6.957,6.957,0,0,0-7-7H14A6.957,6.957,0,0,0,7,8V9H4a2.946,2.946,0,0,0-3,3V28a3.009,3.009,0,0,0,3,3H28a3.009,3.009,0,0,0,3-3V12A2.946,2.946,0,0,0,28,9ZM23,9H9V8a4.951,4.951,0,0,1,5-5h4a4.951,4.951,0,0,1,5,5Z" fill="#403f59"/>
    <path id="Path_16" data-name="Path 16" d="M18,1H14A6.957,6.957,0,0,0,7,8v8a1.075,1.075,0,0,0,1,1,1.075,1.075,0,0,0,1-1V8a4.951,4.951,0,0,1,5-5h4a4.951,4.951,0,0,1,5,5v8a1,1,0,0,0,2,0V8A6.957,6.957,0,0,0,18,1Z" fill="#8dafff"/>
  </g>
</svg>
