<svg xmlns="http://www.w3.org/2000/svg" width="58.228" height="48.54" viewBox="0 0 58.228 48.54">
  <g id="clock" transform="translate(-199 -737)">
    <g id="Schedule" transform="translate(198 736)">
      <path id="Path_11" data-name="Path 11" d="M33.967,3.867H32.533V2.433a1.433,1.433,0,0,0-2.867,0V3.867H15.333V2.433A1.541,1.541,0,0,0,13.9,1a1.541,1.541,0,0,0-1.433,1.433V3.867H11.033A9.972,9.972,0,0,0,1,13.9V33.967A9.972,9.972,0,0,0,11.033,44H33.967A9.972,9.972,0,0,0,44,33.967V13.9A9.972,9.972,0,0,0,33.967,3.867Z" transform="translate(0 0)" fill="#403f59"/>
      <path id="Path_12" data-name="Path 12" d="M33.967,3H11.033A9.972,9.972,0,0,0,1,13.033v5.733A1.541,1.541,0,0,0,2.433,20.2H42.567A1.541,1.541,0,0,0,44,18.767V13.033A9.972,9.972,0,0,0,33.967,3Z" transform="translate(0 0.867)" fill="#8dafff"/>
      <g id="Group_11" data-name="Group 11" transform="translate(12.467 1)">
        <path id="Path_13" data-name="Path 13" d="M11.867,2.433V12.467A1.541,1.541,0,0,1,10.433,13.9,1.541,1.541,0,0,1,9,12.467V2.433A1.541,1.541,0,0,1,10.433,1,1.541,1.541,0,0,1,11.867,2.433Z" transform="translate(-9 -1)" fill="#403f59"/>
      </g>
      <g id="Group_12" data-name="Group 12" transform="translate(29.667 1)">
        <path id="Path_14" data-name="Path 14" d="M23.867,2.433V12.467a1.433,1.433,0,0,1-2.867,0V2.433a1.433,1.433,0,0,1,2.867,0Z" transform="translate(-21 -1)" fill="#403f59"/>
      </g>
    </g>
    <g id="check-svgrepo-com" transform="translate(228.26 761.324)">
      <path id="Path_2" data-name="Path 2" d="M28.678,5.625,23.346.29a.988.988,0,0,0-1.4,0L11.083,11.158,7.02,7.093a.989.989,0,0,0-1.4,0L.289,12.429a.988.988,0,0,0,0,1.4l10.095,10.1a.988.988,0,0,0,1.4,0l16.9-16.9a.987.987,0,0,0,0-1.4Z" fill="#fff"/>
    </g>
  </g>
</svg>
