<?xml version="1.0" encoding="utf-8"?>
<!-- Generator: Adobe Illustrator 25.1.0, SVG Export Plug-In . SVG Version: 6.00 Build 0)  -->
<svg version="1.1" id="Layer_1" xmlns="http://www.w3.org/2000/svg" xmlns:xlink="http://www.w3.org/1999/xlink" x="0px" y="0px"
	 viewBox="0 0 360 360" style="enable-background:new 0 0 360 360;" xml:space="preserve">
<style type="text/css">
	.st0{fill:#FFD748;}
	.st1{fill:#FFFFFF;}
</style>
<path class="st0" d="M301.9,164.6c20.7-12.6,35.9-32.6,42.1-56.1c3.5-13.4,4.6-26.8,0.7-40.3c-5.6-19.4-17.6-33.3-36-41.6
	C293,19.5,276.2,18,259.2,18C201,18,80.3,18,76.3,18c-0.1,0-0.1,0-0.1,0.1L12.8,341.9c0,0,185.7,0.4,216.1-4.2
	c13.3-2,26.5-4.7,38.9-9.8c27.6-11.2,49.4-36,59.5-63.7c5.1-13.9,7.4-28.9,5.8-43.6c-2.5-23-16.3-44.4-39-51.4c-0.1,0-0.1-0.2,0-0.2
	C296.1,168,298.8,166.5,301.9,164.6z"/>
<path class="st1" d="M239.8,89.9c2.3-1,2.2-4.4-0.3-5c-12-3.3-32.5-5.8-53.6-0.5c-38.1,9.7-65.5,46.9-67.2,86.5
	c-1.8,41,24.3,81.5,63,93.4c23.3,7.1,44.4,1.8,56-2.4c2.3-0.8,2.4-3.9,0.2-4.9c-32.4-14.9-53.6-47.4-53.5-83.2
	C184.4,137.2,206.4,104.3,239.8,89.9z"/>
</svg>
