<svg xmlns="http://www.w3.org/2000/svg" width="30" height="33" viewBox="0 0 30 33">
  <g id="Map" transform="translate(-1 -1)">
    <path id="Path_18" data-name="Path 18" d="M22.4,21.4C25.5,17.5,27,14.3,27,12A11,11,0,0,0,5,12c0,2.4,1.5,5.5,4.6,9.4C6.3,21.9,1,23.1,1,26c0,3.4,7.8,5,15,5s15-1.6,15-5C31,23.1,25.7,21.9,22.4,21.4Z" fill="#8dafff"/>
    <path id="Path_19" data-name="Path 19" d="M22.4,21.4a13.444,13.444,0,0,1-1.1,1.4c-.1.1-.2.3-.3.4-.8.9-1.5,1.7-2.1,2.3-.1.1-.2.3-.3.4-.1,0-.1.1-.2.1a9.323,9.323,0,0,1-1,1c-.1.1-.1.2-.2.2-.2.2-.2.2-.2.3l-.2.2h0a1.33,1.33,0,0,1-.8.3.908.908,0,0,1-.7-.3h0l-.2-.2-.2-.2-.2-.2-1-1a.349.349,0,0,0-.2-.1,1.38,1.38,0,0,1-.3-.4c-.6-.7-1.3-1.4-2.1-2.3-.1-.1-.2-.3-.3-.4a17.41,17.41,0,0,0-1.2-1.4C6.3,21.9,1,23.1,1,26c0,3.4,7.8,5,15,5s15-1.6,15-5C31,23.1,25.7,21.9,22.4,21.4Z" transform="translate(0 3)" fill="#fff"/>
    <path id="Path_21" data-name="Path 21" d="M22.4,21.4a13.444,13.444,0,0,1-1.1,1.4c-.1.1-.2.3-.3.4-.8.9-1.5,1.7-2.1,2.3-.1.1-.2.3-.3.4-.1,0-.1.1-.2.1a9.323,9.323,0,0,1-1,1c-.1.1-.1.2-.2.2-.2.2-.2.2-.2.3l-.2.2h0a1.33,1.33,0,0,1-.8.3.908.908,0,0,1-.7-.3h0l-.2-.2-.2-.2-.2-.2-1-1a.349.349,0,0,0-.2-.1,1.38,1.38,0,0,1-.3-.4c-.6-.7-1.3-1.4-2.1-2.3-.1-.1-.2-.3-.3-.4a17.41,17.41,0,0,0-1.2-1.4C6.3,21.9,1,23.1,1,26c0,3.4,7.8,5,15,5s15-1.6,15-5C31,23.1,25.7,21.9,22.4,21.4Z" fill="#403f59"/>
    <path id="Path_20" data-name="Path 20" d="M16,5a6,6,0,1,0,6,6A6.018,6.018,0,0,0,16,5Z" fill="#fff"/>
  </g>
</svg>
