<svg xmlns="http://www.w3.org/2000/svg" width="39" height="30" viewBox="0 0 39 30">
  <g id="messages" transform="translate(-191 -836)">
    <g id="Message" transform="translate(190 835)">
      <path id="Path_6" data-name="Path 6" d="M24,1H8A6.957,6.957,0,0,0,1,8V18a7,7,0,0,0,6,6.9V30a1.05,1.05,0,0,0,.5.9A.9.9,0,0,0,8,31a1.421,1.421,0,0,0,.6-.2l7.5-5.6.3-.2H24a6.957,6.957,0,0,0,7-7V8A6.957,6.957,0,0,0,24,1Z" fill="#fff"/>
      <path id="Path_7" data-name="Path 7" d="M16.1,7V9H8A1.075,1.075,0,0,1,7,8,1.075,1.075,0,0,1,8,7Z" fill="#34b0c0"/>
      <path id="Path_8" data-name="Path 8" d="M16.1,13v2H8a1.075,1.075,0,0,1-1-1,1.075,1.075,0,0,1,1-1Z" fill="#34b0c0"/>
      <g id="Group_10" data-name="Group 10">
        <path id="Path_9" data-name="Path 9" d="M8,9H24a1.075,1.075,0,0,0,1-1,1.075,1.075,0,0,0-1-1H8A1.075,1.075,0,0,0,7,8,1.075,1.075,0,0,0,8,9Z" fill="#3f51b5"/>
        <path id="Path_10" data-name="Path 10" d="M24,13H8a1.075,1.075,0,0,0-1,1,1.075,1.075,0,0,0,1,1H24a1.075,1.075,0,0,0,1-1A1.075,1.075,0,0,0,24,13Z" fill="#3f51b5"/>
      </g>
    </g>
    <g id="Message-2" data-name="Message" transform="translate(215 851)">
      <path id="Path_6-2" data-name="Path 6" d="M4.5,1h8A3.478,3.478,0,0,1,16,4.5v5a3.5,3.5,0,0,1-3,3.45V15.5a.525.525,0,0,1-.25.45.451.451,0,0,1-.25.05.711.711,0,0,1-.3-.1L8.45,13.1,8.3,13H4.5A3.478,3.478,0,0,1,1,9.5v-5A3.478,3.478,0,0,1,4.5,1Z" transform="translate(-1 -1)" fill="#8dafff"/>
      <path id="Path_7-2" data-name="Path 7" d="M7,7V8h4.05a.5.5,0,0,0,0-1Z" transform="translate(0.45 -4)" fill="#34b0c0"/>
      <path id="Path_8-2" data-name="Path 8" d="M7,13v1h4.05a.5.5,0,0,0,0-1Z" transform="translate(0.45 -7)" fill="#34b0c0"/>
      <g id="Group_10-2" data-name="Group 10" transform="translate(3 3)">
        <path id="Path_9-2" data-name="Path 9" d="M15.5,8h-8a.5.5,0,0,1,0-1h8a.5.5,0,0,1,0,1Z" transform="translate(-7 -7)" fill="#fff"/>
        <path id="Path_10-2" data-name="Path 10" d="M7.5,13h8a.5.5,0,0,1,0,1h-8a.5.5,0,0,1,0-1Z" transform="translate(-7 -10)" fill="#fff"/>
      </g>
    </g>
  </g>
</svg>
